<mxfile host="app.diagrams.net" agent="Mozilla/5.0 (Windows NT 10.0; Win64; x64) AppleWebKit/537.36 (KHTML, like Gecko) Chrome/135.0.0.0 Safari/537.36 Edg/135.0.0.0" version="26.2.13">
  <diagram name="Page-1" id="Mt1obAbXdIEP9tQxkhrN">
    <mxGraphModel dx="866" dy="474" grid="1" gridSize="10" guides="1" tooltips="1" connect="1" arrows="1" fold="1" page="1" pageScale="1" pageWidth="850" pageHeight="1100" math="0" shadow="0">
      <root>
        <mxCell id="0" />
        <mxCell id="1" parent="0" />
        <mxCell id="4LZiRgCNlOVM36JuA9Av-3" value="" style="edgeStyle=orthogonalEdgeStyle;rounded=0;orthogonalLoop=1;jettySize=auto;html=1;" parent="1" source="4LZiRgCNlOVM36JuA9Av-1" target="4LZiRgCNlOVM36JuA9Av-2" edge="1">
          <mxGeometry relative="1" as="geometry" />
        </mxCell>
        <mxCell id="4LZiRgCNlOVM36JuA9Av-1" value="IOT" style="rounded=1;whiteSpace=wrap;html=1;" parent="1" vertex="1">
          <mxGeometry x="60" y="100" width="120" height="60" as="geometry" />
        </mxCell>
        <mxCell id="4LZiRgCNlOVM36JuA9Av-5" value="" style="edgeStyle=orthogonalEdgeStyle;rounded=0;orthogonalLoop=1;jettySize=auto;html=1;" parent="1" source="4LZiRgCNlOVM36JuA9Av-2" target="4LZiRgCNlOVM36JuA9Av-4" edge="1">
          <mxGeometry relative="1" as="geometry" />
        </mxCell>
        <mxCell id="4LZiRgCNlOVM36JuA9Av-2" value="worker-data-load-v2" style="whiteSpace=wrap;html=1;rounded=1;" parent="1" vertex="1">
          <mxGeometry x="240" y="100" width="120" height="60" as="geometry" />
        </mxCell>
        <mxCell id="4LZiRgCNlOVM36JuA9Av-4" value="fleet historical performance" style="whiteSpace=wrap;html=1;rounded=1;" parent="1" vertex="1">
          <mxGeometry x="440" y="100" width="120" height="60" as="geometry" />
        </mxCell>
        <mxCell id="rk94cMawY2bdp4tdWM7d-6" style="edgeStyle=orthogonalEdgeStyle;rounded=0;orthogonalLoop=1;jettySize=auto;html=1;entryX=0;entryY=0.5;entryDx=0;entryDy=0;" edge="1" parent="1" source="rk94cMawY2bdp4tdWM7d-1" target="rk94cMawY2bdp4tdWM7d-5">
          <mxGeometry relative="1" as="geometry" />
        </mxCell>
        <mxCell id="rk94cMawY2bdp4tdWM7d-9" style="edgeStyle=orthogonalEdgeStyle;rounded=0;orthogonalLoop=1;jettySize=auto;html=1;entryX=0;entryY=0.5;entryDx=0;entryDy=0;exitX=1;exitY=0.5;exitDx=0;exitDy=0;" edge="1" parent="1" source="rk94cMawY2bdp4tdWM7d-1" target="rk94cMawY2bdp4tdWM7d-8">
          <mxGeometry relative="1" as="geometry" />
        </mxCell>
        <mxCell id="rk94cMawY2bdp4tdWM7d-1" value="Fetch data productiom" style="rounded=1;whiteSpace=wrap;html=1;" vertex="1" parent="1">
          <mxGeometry x="40" y="370" width="120" height="60" as="geometry" />
        </mxCell>
        <mxCell id="rk94cMawY2bdp4tdWM7d-2" value="FetchTrnDataLoad" style="rounded=1;whiteSpace=wrap;html=1;" vertex="1" parent="1">
          <mxGeometry x="240" y="330" width="120" height="60" as="geometry" />
        </mxCell>
        <mxCell id="rk94cMawY2bdp4tdWM7d-5" value="FetchTrnDataProduction" style="rounded=1;whiteSpace=wrap;html=1;" vertex="1" parent="1">
          <mxGeometry x="240" y="430" width="150" height="60" as="geometry" />
        </mxCell>
        <mxCell id="rk94cMawY2bdp4tdWM7d-8" value="GetShiftRange" style="rounded=1;whiteSpace=wrap;html=1;" vertex="1" parent="1">
          <mxGeometry x="240" y="240" width="120" height="60" as="geometry" />
        </mxCell>
        <mxCell id="rk94cMawY2bdp4tdWM7d-12" style="edgeStyle=orthogonalEdgeStyle;rounded=0;orthogonalLoop=1;jettySize=auto;html=1;entryX=-0.025;entryY=0.4;entryDx=0;entryDy=0;entryPerimeter=0;" edge="1" parent="1" source="rk94cMawY2bdp4tdWM7d-1" target="rk94cMawY2bdp4tdWM7d-2">
          <mxGeometry relative="1" as="geometry" />
        </mxCell>
      </root>
    </mxGraphModel>
  </diagram>
</mxfile>
